# xmcd CD database file
#
# Track frame offsets:
#	150
#	13215
#	25450
#	49109
#	67974
#	82598
#	102802
#	125005
#	144456
#	164676
#	180418
#	197503
#	210086
#	226430
#	245303
#
# Disc length: 3479 seconds
#
# Revision: 1
# Processed by: cddbd v1.5PL3 Copyright (c) Steve Scherf et al.
# Submitted via: CDex 1.50
#
DISCID=be0d950f
DTITLE=Artist Track - Toque Popular 03
DYEAR=2003
DGENRE=Blues
TTITLE0=Gretchen - Melô do Piripipi 
TTITLE1=João da Praia - O Boi Vai Atrás 
TTITLE2=Roupa Nova  - Joanna - Um Sonhos a Dois
TTITLE3=Peninha -  Sonhos      
TTITLE4=Márcio Greyck -  Infinito (l'infinito) 
TTITLE5=Nelson Ned - Se as Flores Pudessem
TTITLE6=José Augusto - Aguenta Coração
TTITLE7=Amado Batista - Seresteiro das Noites
TTITLE8=Luiz Ayrão - Os Amantes
TTITLE9=Francisco Cuoco - Todo o Tempo do Mundo
TTITLE10=Silvio Brito -  Tá Todo Mundo Louco
TTITLE11=Elizabeth - Sou Louca por Você
TTITLE12=Gilliard -  Aquela Nuvem
TTITLE13=César Sampaio - Uma Lágrima na Garganta
TTITLE14=Reginaldo Rossi - Garçon
EXTD=YEAR: 2003
EXTT0=
EXTT1=
EXTT2=
EXTT3=
EXTT4=
EXTT5=
EXTT6=
EXTT7=
EXTT8=
EXTT9=
EXTT10=
EXTT11=
EXTT12=
EXTT13=
EXTT14=
PLAYORDER=
